<svg xmlns="http://www.w3.org/2000/svg" viewBox="0 0 240 48" fill="none">
  <!-- Crocodile icon -->
  <g transform="translate(4, 4)">
    <!-- Body -->
    <ellipse cx="20" cy="22" rx="16" ry="12" fill="#22c55e" opacity="0.9"/>
    <!-- Head -->
    <path d="M32 18 Q42 14 48 18 Q42 22 32 22 Z" fill="#16a34a"/>
    <!-- Eye -->
    <circle cx="38" cy="17" r="2" fill="white"/>
    <circle cx="38.5" cy="16.8" r="1" fill="#0a0a0a"/>
    <!-- Teeth -->
    <path d="M42 18 L43 20 L44 18 L45 20 L46 18" stroke="white" stroke-width="0.8" fill="none"/>
    <!-- Scales -->
    <path d="M12 14 Q14 10 16 14 Q18 10 20 14 Q22 10 24 14 Q26 10 28 14" stroke="#15803b" stroke-width="1.2" fill="none"/>
    <!-- Tail -->
    <path d="M4 22 Q0 18 2 14" stroke="#22c55e" stroke-width="3" fill="none" stroke-linecap="round"/>
    <!-- Legs -->
    <line x1="14" y1="32" x2="12" y2="38" stroke="#16a34a" stroke-width="2" stroke-linecap="round"/>
    <line x1="26" y1="32" x2="28" y2="38" stroke="#16a34a" stroke-width="2" stroke-linecap="round"/>
  </g>
  <!-- Text: croktile -->
  <text x="68" y="33" font-family="Inter, system-ui, sans-serif" font-weight="700" font-size="24" fill="currentColor" letter-spacing="-0.5">
    <tspan fill="#22c55e">crok</tspan><tspan>tile</tspan>
  </text>
</svg>
